<svg width="14" height="3" viewBox="0 0 14 3" fill="none" xmlns="http://www.w3.org/2000/svg">
  <path d="M8.3257 1.36588C8.3257 1.55583 8.26937 1.7415 8.16384 1.89943C8.05832 2.05737 7.90833 2.18046 7.73285 2.25315C7.55736 2.32583 7.36426 2.34485 7.17797 2.3078C6.99168 2.27074 6.82056 2.17927 6.68625 2.04496C6.55194 1.91065 6.46047 1.73953 6.42342 1.55324C6.38636 1.36695 6.40538 1.17385 6.47807 0.998367C6.55076 0.822883 6.67385 0.672895 6.83178 0.567368C6.98971 0.461842 7.17539 0.405518 7.36533 0.405518C7.62004 0.405518 7.86431 0.506699 8.04441 0.686802C8.22451 0.866906 8.3257 1.11118 8.3257 1.36588ZM12.8074 0.405518C12.6175 0.405518 12.4318 0.461842 12.2739 0.567368C12.1159 0.672895 11.9928 0.822883 11.9201 0.998367C11.8475 1.17385 11.8284 1.36695 11.8655 1.55324C11.9025 1.73953 11.994 1.91065 12.1283 2.04496C12.2626 2.17927 12.4338 2.27074 12.62 2.3078C12.8063 2.34485 12.9994 2.32583 13.1749 2.25315C13.3504 2.18046 13.5004 2.05737 13.6059 1.89943C13.7114 1.7415 13.7678 1.55583 13.7678 1.36588C13.7678 1.11118 13.6666 0.866906 13.4865 0.686802C13.3064 0.506699 13.0621 0.405518 12.8074 0.405518ZM1.92326 0.405518C1.73331 0.405518 1.54764 0.461842 1.38971 0.567368C1.23177 0.672895 1.10868 0.822883 1.03599 0.998367C0.963307 1.17385 0.944288 1.36695 0.981344 1.55324C1.0184 1.73953 1.10987 1.91065 1.24418 2.04496C1.37849 2.17927 1.54961 2.27074 1.7359 2.3078C1.92219 2.34485 2.11529 2.32583 2.29077 2.25315C2.46626 2.18046 2.61625 2.05737 2.72177 1.89943C2.8273 1.7415 2.88362 1.55583 2.88362 1.36588C2.88362 1.11118 2.78244 0.866906 2.60234 0.686802C2.42223 0.506699 2.17796 0.405518 1.92326 0.405518Z" fill="white"/>
</svg>
