<svg width="24" height="24" viewBox="0 0 24 24" fill="none" xmlns="http://www.w3.org/2000/svg">
    <g opacity="0.4" clip-path="url(#clip0_580_3612)">
        <path d="M12 21C16.9706 21 21 16.9706 21 12C21 7.02944 16.9706 3 12 3C7.02944 3 3 7.02944 3 12C3 16.9706 7.02944 21 12 21Z" stroke="white" stroke-width="1.5" stroke-linecap="round" stroke-linejoin="round" />
        <path d="M7.11328 11.5556L8.36203 9.37501C8.42795 9.26083 8.5228 9.16605 8.63703 9.10021C8.75125 9.03438 8.88082 8.99982 9.01266 9.00001H10.5792C10.7059 9.00022 10.8305 8.96794 10.9411 8.90626L12.0933 8.27251C12.144 8.24524 12.1909 8.21152 12.233 8.1722L14.7567 5.89126C14.8823 5.77705 14.9654 5.62363 14.9925 5.45606C15.0196 5.2885 14.989 5.1167 14.9058 4.96876L13.9214 3.20532" stroke="white" stroke-width="1.5" stroke-linecap="round" stroke-linejoin="round" />
        <path d="M6.3548 4.99023L5.25042 7.60117C5.17583 7.77792 5.1718 7.97654 5.23917 8.15617L6.3173 11.0315C6.3616 11.149 6.43468 11.2534 6.52985 11.3353C6.62501 11.4172 6.73922 11.4739 6.86199 11.5002L8.87105 11.9324C8.98248 11.9563 9.087 12.0053 9.17667 12.0756C9.26634 12.146 9.3388 12.2358 9.38855 12.3384L9.7448 13.0762C9.80625 13.2029 9.90216 13.3098 10.0215 13.3846C10.1409 13.4594 10.2789 13.499 10.4198 13.499H11.7135" stroke="white" stroke-width="1.5" stroke-linecap="round" stroke-linejoin="round" />
        <path d="M19.9773 16.17L15.0667 13.1493C14.9774 13.0949 14.8778 13.0595 14.7742 13.0453L12.6348 12.7565C12.4741 12.7348 12.3107 12.7657 12.1691 12.8446C12.0275 12.9235 11.9152 13.0463 11.8492 13.1943L10.5648 16.0762C10.5051 16.2103 10.4861 16.359 10.5101 16.5038C10.5341 16.6486 10.6001 16.7832 10.6998 16.8909L12.5504 18.7968C12.6307 18.8831 12.6894 18.987 12.722 19.1002C12.7546 19.2134 12.76 19.3327 12.7379 19.4484L12.4408 20.9897" stroke="white" stroke-width="1.5" stroke-linecap="round" stroke-linejoin="round" />
    </g>
    <defs>
        <clipPath id="clip0_580_3612">
            <rect width="24" height="24" fill="white" />
        </clipPath>
    </defs>
</svg>
