<svg width="17" height="17" viewBox="0 0 17 17" fill="none" xmlns="http://www.w3.org/2000/svg">
  <g opacity="0.4" clip-path="url(#clip0_638_917)">
    <path d="M15.4911 8.00694C15.4916 8.18511 15.4444 8.36016 15.3545 8.514C15.2647 8.66783 15.1353 8.79486 14.9799 8.88194L4.48487 14.8826C4.33427 14.9679 4.16424 15.0131 3.99112 15.0138C3.83162 15.013 3.67463 14.974 3.53327 14.9001C3.3919 14.8262 3.27027 14.7195 3.17851 14.5891C3.08676 14.4586 3.02754 14.3081 3.00582 14.15C2.98409 13.992 3.00048 13.8311 3.05362 13.6807L4.74112 8.68382C4.75761 8.63496 4.78881 8.5924 4.83043 8.56197C4.87205 8.53154 4.92207 8.51472 4.97362 8.51381H9.49112C9.55967 8.51397 9.62751 8.50002 9.69044 8.47285C9.75336 8.44567 9.81003 8.40585 9.85692 8.35586C9.90381 8.30586 9.93992 8.24676 9.96301 8.18222C9.98609 8.11768 9.99566 8.04908 9.99112 7.98069C9.97978 7.85212 9.92029 7.73257 9.82456 7.646C9.72883 7.55943 9.60393 7.51221 9.47487 7.51381H4.97487C4.92257 7.51382 4.87158 7.49742 4.82909 7.46692C4.78659 7.43643 4.75473 7.39337 4.738 7.34381L3.0505 2.34756C2.98333 2.15606 2.97602 1.94865 3.02954 1.75289C3.08306 1.55714 3.19487 1.38229 3.35012 1.2516C3.50537 1.1209 3.69671 1.04053 3.89873 1.02116C4.10074 1.0018 4.30387 1.04436 4.48112 1.14319L14.9811 7.13631C15.1357 7.22319 15.2644 7.3496 15.354 7.50259C15.4436 7.65557 15.4909 7.82964 15.4911 8.00694Z" fill="white"/>
  </g>
  <defs>
    <clipPath id="clip0_638_917">
      <rect width="16" height="16" fill="white" transform="translate(0.490234 0.0136719)"/>
    </clipPath>
  </defs>
</svg>
