<svg width="20" height="20" viewBox="0 0 20 20" fill="none" xmlns="http://www.w3.org/2000/svg">
  <g clip-path="url(#clip0_638_408)">
    <path d="M17.6453 8.03281C17.3508 7.725 17.0461 7.40781 16.9312 7.12891C16.825 6.87344 16.8187 6.45 16.8125 6.03984C16.8008 5.27734 16.7883 4.41328 16.1875 3.8125C15.5867 3.21172 14.7227 3.19922 13.9602 3.1875C13.55 3.18125 13.1266 3.175 12.8711 3.06875C12.593 2.95391 12.275 2.64922 11.9672 2.35469C11.4281 1.83672 10.8156 1.25 10 1.25C9.18437 1.25 8.57266 1.83672 8.03281 2.35469C7.725 2.64922 7.40781 2.95391 7.12891 3.06875C6.875 3.175 6.45 3.18125 6.03984 3.1875C5.27734 3.19922 4.41328 3.21172 3.8125 3.8125C3.21172 4.41328 3.20312 5.27734 3.1875 6.03984C3.18125 6.45 3.175 6.87344 3.06875 7.12891C2.95391 7.40703 2.64922 7.725 2.35469 8.03281C1.83672 8.57188 1.25 9.18437 1.25 10C1.25 10.8156 1.83672 11.4273 2.35469 11.9672C2.64922 12.275 2.95391 12.5922 3.06875 12.8711C3.175 13.1266 3.18125 13.55 3.1875 13.9602C3.19922 14.7227 3.21172 15.5867 3.8125 16.1875C4.41328 16.7883 5.27734 16.8008 6.03984 16.8125C6.45 16.8187 6.87344 16.825 7.12891 16.9312C7.40703 17.0461 7.725 17.3508 8.03281 17.6453C8.57188 18.1633 9.18437 18.75 10 18.75C10.8156 18.75 11.4273 18.1633 11.9672 17.6453C12.275 17.3508 12.5922 17.0461 12.8711 16.9312C13.1266 16.825 13.55 16.8187 13.9602 16.8125C14.7227 16.8008 15.5867 16.7883 16.1875 16.1875C16.7883 15.5867 16.8008 14.7227 16.8125 13.9602C16.8187 13.55 16.825 13.1266 16.9312 12.8711C17.0461 12.593 17.3508 12.275 17.6453 11.9672C18.1633 11.4281 18.75 10.8156 18.75 10C18.75 9.18437 18.1633 8.57266 17.6453 8.03281ZM9.375 6.25C9.375 6.08424 9.44085 5.92527 9.55806 5.80806C9.67527 5.69085 9.83424 5.625 10 5.625C10.1658 5.625 10.3247 5.69085 10.4419 5.80806C10.5592 5.92527 10.625 6.08424 10.625 6.25V10.625C10.625 10.7908 10.5592 10.9497 10.4419 11.0669C10.3247 11.1842 10.1658 11.25 10 11.25C9.83424 11.25 9.67527 11.1842 9.55806 11.0669C9.44085 10.9497 9.375 10.7908 9.375 10.625V6.25ZM10 14.375C9.81458 14.375 9.63332 14.32 9.47915 14.217C9.32498 14.114 9.20482 13.9676 9.13386 13.7963C9.06291 13.625 9.04434 13.4365 9.08051 13.2546C9.11669 13.0727 9.20598 12.9057 9.33709 12.7746C9.4682 12.6435 9.63525 12.5542 9.8171 12.518C9.99896 12.4818 10.1875 12.5004 10.3588 12.5714C10.5301 12.6423 10.6765 12.7625 10.7795 12.9167C10.8825 13.0708 10.9375 13.2521 10.9375 13.4375C10.9375 13.6861 10.8387 13.9246 10.6629 14.1004C10.4871 14.2762 10.2486 14.375 10 14.375Z" fill="white"/>
  </g>
  <defs>
    <clipPath id="clip0_638_408">
      <rect width="20" height="20" fill="white"/>
    </clipPath>
  </defs>
</svg>
